<?xml version="1.0" encoding="utf-8"?>
<!-- Generator: Adobe Illustrator 18.1.1, SVG Export Plug-In . SVG Version: 6.00 Build 0)  -->
<svg version="1.1" id="Layer_1" xmlns="http://www.w3.org/2000/svg" xmlns:xlink="http://www.w3.org/1999/xlink" x="0px" y="0px"
	 viewBox="0 0 3000 3000" enable-background="new 0 0 3000 3000" xml:space="preserve">
<g>
	<rect fill="#FFF9A1" width="3000" height="3000"/>
	<g>
		<g>
			<path opacity="0.5" fill="#FFA1A1" enable-background="new    " d="M2802.1,2039.4c-34.5,83.3-147.5,124.8-197.2,198.9
				c-49.9,74.6-45.3,194.8-108.6,258.2c-63.3,63.3-183.5,58.6-258.2,108.6c-74,49.6-115.6,162.6-198.9,197.2
				c-81.9,33.9-191-16.3-280,1.3c-86.4,17.1-167.9,105.6-259.3,105.6s-173-88.5-259.3-105.6c-89-17.6-198.1,32.6-280-1.3
				c-83.3-34.5-124.8-147.5-198.9-197.2c-74.6-49.9-194.8-45.3-258.1-108.6c-63.3-63.3-58.6-183.5-108.7-258.2
				c-1.4-2.1-2.8-4.2-4.4-6.2c-51.5-70.3-159.2-111.7-192.8-192.6c-33.9-81.9,16.3-191-1.3-280C179.5,1672.9,91,1591.4,91,1500
				c0-91.4,88.5-173,105.6-259.3c17.6-89-32.6-198.1,1.3-280c34.5-83.3,147.5-124.8,197.2-198.9C445,687.2,440.4,567,503.7,503.6
				C567,440.3,687.2,445,761.8,395c74-49.6,115.6-162.7,198.9-197.2c81.9-33.9,191,16.3,280-1.3C1327,179.4,1408.6,90.9,1500,90.9
				s173,88.5,259.3,105.6c89,17.6,198.1-32.6,280,1.3c80.9,33.6,122.4,141.2,192.6,192.8c2.1,1.5,4.2,2.9,6.2,4.4
				c74.6,49.9,194.8,45.3,258.2,108.6c63.3,63.3,58.6,183.5,108.6,258.2c49.6,74,162.6,115.6,197.2,198.9
				c33.9,81.9-16.3,191,1.3,280c17.1,86.4,105.6,167.9,105.6,259.3c0,91.4-88.5,173-105.6,259.3
				C2785.8,1848.3,2836.1,1957.4,2802.1,2039.4z"/>
			<path opacity="0.5" fill="#FF8585" enable-background="new    " d="M2748.8,2017.2c-33.1,79.9-141.6,119.7-189.1,190.7
				c-47.9,71.6-43.5,186.9-104.2,247.6s-176,56.3-247.6,104.2c-71,47.6-110.8,155.9-190.7,189.1c-78.6,32.6-183.2-15.6-268.6,1.3
				c-82.8,16.4-161,101.3-248.7,101.3c-87.7,0-165.9-84.9-248.7-101.3c-85.4-16.9-190,31.3-268.6-1.3
				c-79.9-33.1-119.7-141.6-190.7-189.1c-71.6-47.9-186.9-43.5-247.6-104.2c-60.7-60.7-56.3-176-104.2-247.6c-1.3-2-2.7-4-4.2-6
				c-49.5-67.3-152.7-107.1-184.9-184.8c-32.6-78.6,15.6-183.2-1.3-268.6c-16.4-82.8-101.3-161-101.3-248.7s84.9-165.9,101.3-248.7
				c16.9-85.4-31.3-190,1.3-268.6c33.1-79.9,141.6-119.7,189.1-190.7c47.9-71.6,43.5-186.9,104.2-247.6
				c60.7-60.7,176-56.3,247.6-104.2c71-47.6,110.8-155.9,190.7-189.1c78.6-32.6,183.2,15.6,268.6-1.3
				c82.8-16.4,161-101.3,248.7-101.3s165.9,84.9,248.7,101.3c85.4,16.9,190-31.3,268.6,1.3c77.6,32.2,117.5,135.4,184.8,184.9
				c2,1.4,4,2.8,6,4.2c71.6,47.9,186.9,43.5,247.6,104.2c60.7,60.7,56.3,176,104.2,247.6c47.6,71,155.9,110.8,189.1,190.7
				c32.6,78.6-15.6,183.2,1.3,268.6c16.4,82.8,101.3,161,101.3,248.7s-84.9,165.9-101.3,248.7
				C2733.2,1834.1,2781.5,1938.7,2748.8,2017.2z"/>
		</g>
		<g>
			<g>
				<path fill="#B53939" d="M1574.2,2447.2V552.7c0-60.7,30.6-117.6,82.2-149.8c26.5-16.5,42.3-37.3,42.3-59.9
					c0-53.6-88.9-97-198.7-97s-198.7,43.4-198.7,97c0,22.6,15.8,43.3,42.3,59.9c51.5,32.1,82.2,89.1,82.2,149.8v1894.6
					c0,60.7-30.6,117.6-82.2,149.8c-26.5,16.5-42.3,37.3-42.3,59.9c0,53.6,88.9,97,198.7,97s198.7-43.4,198.7-97
					c0-22.6-15.8-43.3-42.3-59.9C1604.9,2565,1574.2,2507.9,1574.2,2447.2z"/>
				<path fill="#993130" d="M1978.6,2196.9L1135.7,737c-27-46.7-28.7-104.3-3.3-152c13.1-24.5,16-47.5,6-64.9
					c-23.8-41.3-111.7-35.2-196.2,13.6S808.4,655.6,832.3,696.9c10,17.4,31.4,26.4,59.2,27.3c54,1.8,103,32.1,129.9,78.9
					L1864.3,2263c27,46.7,28.7,104.3,3.3,152c-13.1,24.5-16,47.5-6,64.9c23.8,41.3,111.7,35.2,196.2-13.6
					c84.5-48.8,133.7-121.9,109.9-163.1c-10-17.4-31.4-26.4-59.2-27.3C2054.6,2273.9,2005.6,2243.6,1978.6,2196.9z"/>
				<path fill="#B53939" d="M2357.5,1909.3L716.7,962.1c-52.6-30.4-86.5-85.4-88.6-146c-1-31.1-11.2-55.2-30.7-66.5
					C550.9,722.8,468.9,778,414,873.1s-61.7,193.8-15.2,220.5c19.6,11.3,45.4,8,72.9-6.6c53.5-28.6,118.2-26.7,170.8,3.7
					l1640.8,947.3c52.6,30.4,86.5,85.4,88.6,146c1,31.1,11.2,55.2,30.7,66.5c46.4,26.8,128.5-28.5,183.4-123.5
					c54.8-95,61.7-193.8,15.2-220.5c-19.6-11.3-45.4-8-72.9,6.6C2474.7,1941.6,2410,1939.7,2357.5,1909.3z"/>
				<path fill="#993130" d="M2342.9,1433.9H657.1c-54,0-104.7-27.3-133.2-73.1c-14.7-23.5-33.2-37.5-53.2-37.5
					c-47.7,0-86.3,79.2-86.3,176.7s38.7,176.7,86.3,176.7c20,0,38.6-14,53.2-37.5c28.6-45.9,79.2-73.1,133.2-73.1h1685.7
					c54,0,104.7,27.3,133.2,73.1c14.7,23.5,33.2,37.5,53.2,37.5c47.7,0,86.3-79.2,86.3-176.7s-38.7-176.7-86.3-176.7
					c-20,0-38.6,14-53.2,37.5C2447.6,1406.6,2396.9,1433.9,2342.9,1433.9z"/>
				<path fill="#B53939" d="M2283.3,962.1L642.5,1909.3c-52.6,30.4-117.3,32.2-170.8,3.7c-27.5-14.7-53.4-18-72.9-6.6
					c-46.4,26.8-39.6,125.6,15.2,220.5c54.8,94.9,136.9,150.3,183.4,123.5c19.6-11.3,29.7-35.4,30.7-66.5
					c2.1-60.6,36-115.7,88.6-146l1640.8-947.3c52.6-30.4,117.3-32.2,170.8-3.7c27.5,14.7,53.4,18,72.9,6.6
					c46.4-26.8,39.6-125.6-15.2-220.5s-136.9-150.3-183.4-123.5c-19.6,11.3-29.7,35.4-30.7,66.5
					C2369.8,876.7,2335.9,931.7,2283.3,962.1z"/>
				<path fill="#993130" d="M1864.3,737l-842.9,1459.9c-27,46.7-76,77-129.9,78.9c-27.7,0.9-49.1,9.9-59.2,27.3
					c-23.8,41.3,25.3,114.3,109.9,163.1s172.4,54.8,196.2,13.6c10-17.4,7.1-40.4-6-64.9c-25.4-47.7-23.7-105.2,3.3-152l842.9-1460
					c27-46.7,76-77,129.9-78.9c27.7-0.9,49.1-9.9,59.2-27.3c23.8-41.3-25.3-114.3-109.9-163.1s-172.4-54.8-196.2-13.6
					c-10,17.4-7.1,40.4,6,64.9C1892.9,632.7,1891.2,690.3,1864.3,737z"/>
			</g>
			<path fill="#C9403F" d="M2305.9,1500c0,445-360.8,805.9-805.9,805.9c-208.4,0-398.3-79.2-541.4-208.9
				c-162.5-147.4-264.5-360.3-264.5-596.9c0-445,360.8-805.9,805.9-805.9c236.7,0,449.5,102,596.9,264.5
				C2226.7,1101.6,2305.9,1291.5,2305.9,1500z"/>
			<path fill="#B53939" d="M2305.9,1500c0,445-360.8,805.9-805.9,805.9c-208.4,0-398.3-79.2-541.4-208.9
				c-129.8-143.1-209-333-209-541.4c0-445,360.8-805.9,805.9-805.9c208.4,0,398.3,79.2,541.4,209
				C2226.7,1101.6,2305.9,1291.5,2305.9,1500z"/>
			<path fill="#CC4040" d="M2101.6,1500c0,332.3-269.3,601.6-601.6,601.6c-205.6,0-387.1-103.1-495.6-260.4
				c-66.9-96.9-106-214.5-106-341.2c0-332.3,269.3-601.6,601.6-601.6c126.7,0,244.3,39.2,341.2,106
				C1998.6,1112.9,2101.6,1294.4,2101.6,1500z"/>
			<path fill="#E84949" d="M1947.2,1345.6c0,332.3-269.3,601.6-601.6,601.6c-126.7,0-244.3-39.2-341.2-106
				c-66.9-97-106-214.6-106-341.3c0-332.3,269.3-601.6,601.6-601.6c126.7,0,244.3,39.2,341.2,106
				C1908.1,1101.4,1947.2,1218.9,1947.2,1345.6z"/>
			<g>
				<g>
					<path fill="#B53727" d="M1444.4,1212c0,62.7-50.8,113.5-113.5,113.5c-39.8,0-74.8-20.5-95.1-51.5
						c-11.6-17.8-18.3-39.1-18.3-61.8c0-62.7,50.8-113.5,113.5-113.5c22.9,0,44.1,6.7,61.9,18.3
						C1423.9,1137.2,1444.4,1172.2,1444.4,1212z"/>
					<path fill="#D4412F" d="M1411.2,1178.8c0,62.7-50.8,113.5-113.5,113.5c-22.8,0-44.1-6.7-61.9-18.3
						c-11.6-17.8-18.3-39.1-18.3-61.8c0-62.7,50.8-113.5,113.5-113.5c22.9,0,44.1,6.7,61.9,18.3
						C1404.4,1134.7,1411.2,1156,1411.2,1178.8z"/>
				</g>
				<g>
					<path fill="#B53727" d="M1169.7,1422.8c0,36.2-29.4,65.6-65.6,65.6c-23.1,0-43.3-11.9-55-29.8c-6.7-10.3-10.6-22.6-10.6-35.8
						c0-36.2,29.4-65.6,65.6-65.6c13.2,0,25.5,3.9,35.8,10.6C1157.9,1379.5,1169.7,1399.7,1169.7,1422.8z"/>
					<path fill="#D4412F" d="M1150.5,1403.6c0,36.2-29.4,65.6-65.6,65.6c-13.2,0-25.5-3.9-35.8-10.6c-6.7-10.3-10.6-22.6-10.6-35.8
						c0-36.2,29.4-65.6,65.6-65.6c13.2,0,25.5,3.9,35.8,10.6C1146.6,1378.1,1150.5,1390.4,1150.5,1403.6z"/>
				</g>
				<g>
					<path fill="#B53727" d="M1631.3,1048.3c0,36.2-29.4,65.6-65.6,65.6c-23.1,0-43.3-11.9-55-29.8c-6.7-10.3-10.6-22.6-10.6-35.8
						c0-36.2,29.4-65.6,65.6-65.6c13.2,0,25.5,3.9,35.8,10.6C1619.4,1005,1631.3,1025.2,1631.3,1048.3z"/>
					<path fill="#D4412F" d="M1612.1,1029.1c0,36.2-29.4,65.6-65.6,65.6c-13.2,0-25.5-3.9-35.8-10.6c-6.7-10.3-10.6-22.6-10.6-35.8
						c0-36.2,29.4-65.6,65.6-65.6c13.2,0,25.5,3.9,35.8,10.6C1608.2,1003.6,1612.1,1015.9,1612.1,1029.1z"/>
				</g>
				<g>
					<path fill="#B53727" d="M1283.2,1805.6c0,36.2-29.4,65.6-65.6,65.6c-23.1,0-43.3-11.9-55-29.8c-6.7-10.3-10.6-22.6-10.6-35.8
						c0-36.2,29.4-65.6,65.6-65.6c13.2,0,25.5,3.9,35.8,10.6C1271.2,1762.3,1283.2,1782.6,1283.2,1805.6z"/>
					<path fill="#D4412F" d="M1264,1786.4c0,36.2-29.4,65.6-65.6,65.6c-13.2,0-25.5-3.9-35.8-10.6c-6.7-10.3-10.6-22.6-10.6-35.8
						c0-36.2,29.4-65.6,65.6-65.6c13.2,0,25.5,3.9,35.8,10.6C1260,1761,1264,1773.2,1264,1786.4z"/>
				</g>
				<g>
					<path fill="#B53727" d="M1740.1,1723.9c0,36.2-29.4,65.6-65.6,65.6c-23.1,0-43.3-11.9-55-29.8c-6.7-10.3-10.6-22.6-10.6-35.8
						c0-36.2,29.4-65.6,65.6-65.6c13.2,0,25.5,3.9,35.8,10.6C1728.2,1680.6,1740.1,1700.8,1740.1,1723.9z"/>
					<path fill="#D4412F" d="M1720.9,1704.7c0,36.2-29.4,65.6-65.6,65.6c-13.2,0-25.5-3.9-35.8-10.6c-6.7-10.3-10.6-22.6-10.6-35.8
						c0-36.2,29.4-65.6,65.6-65.6c13.2,0,25.5,3.9,35.8,10.6C1716.9,1679.2,1720.9,1691.4,1720.9,1704.7z"/>
				</g>
				<g>
					<path fill="#B53727" d="M1864.1,1367.1c0,91.4-74,165.5-165.5,165.5c-58.1,0-109.1-29.9-138.7-75.2
						c-16.9-26-26.8-56.9-26.8-90.3c0-91.4,74-165.5,165.5-165.5c33.3,0,64.3,9.8,90.3,26.8C1834.2,1258,1864.1,1309,1864.1,1367.1z
						"/>
					<path fill="#D4412F" d="M1815.7,1318.7c0,91.4-74,165.5-165.5,165.5c-33.3,0-64.3-9.8-90.3-26.8c-16.9-26-26.8-56.9-26.8-90.3
						c0-91.4,74-165.5,165.5-165.5c33.3,0,64.3,9.8,90.3,26.8C1805.8,1254.4,1815.7,1285.4,1815.7,1318.7z"/>
				</g>
				<g>
					<path fill="#B53727" d="M1492,1569.9c0,68.9-55.9,124.8-124.8,124.8c-43.8,0-82.4-22.6-104.6-56.7
						c-12.8-19.6-20.2-42.9-20.2-68.1c0-68.9,55.9-124.8,124.8-124.8c25.2,0,48.5,7.5,68.1,20.2
						C1469.5,1487.7,1492,1526.1,1492,1569.9z"/>
					<path fill="#D4412F" d="M1455.5,1533.4c0,68.9-55.9,124.8-124.8,124.8c-25.2,0-48.5-7.5-68.1-20.2
						c-12.8-19.6-20.2-42.9-20.2-68.1c0-68.9,55.9-124.8,124.8-124.8c25.2,0,48.5,7.5,68.1,20.2
						C1448.1,1484.9,1455.5,1508.4,1455.5,1533.4z"/>
				</g>
			</g>
		</g>
	</g>
	<g>
		<g>
			<path fill="#4FC4EF" d="M2194.4,1003.1L1050.2,2147.3l-287.6-287.6L1906.8,715.5c46.7-46.7,122.4-46.7,169.1,0L2194.4,834
				C2241.1,880.7,2241.1,956.4,2194.4,1003.1z"/>
			<path fill="#00AEEF" d="M2194.4,1003.1L1050.2,2147.3L804.9,1902L1949.1,757.8c46.7-46.7,122.4-46.7,169.1,0l76.2,76.2
				C2241.1,880.7,2241.1,956.4,2194.4,1003.1z"/>
			<path opacity="0.1" fill="#ED1C24" d="M2194.4,1003.1l-467.1,467.1l-287.6-287.6l467.1-467.1c46.7-46.7,122.4-46.7,169.1,0
				L2194.4,834C2241.1,880.7,2241.1,956.4,2194.4,1003.1z"/>
			
				<rect x="105.7" y="1911.9" transform="matrix(0.7071 -0.7071 0.7071 0.7071 -1119.3702 1240.9318)" fill="#0098D1" width="1665.1" height="119.6"/>
			
				<rect x="2110.6" y="655.6" transform="matrix(0.7071 -0.7071 0.7071 0.7071 136.9434 1761.3137)" fill="#8BD4EF" width="168" height="119.6"/>
			
				<rect x="2121.1" y="681.1" transform="matrix(0.7071 -0.7071 0.7071 0.7071 132.5661 1771.8815)" fill="#77B6CC" width="168" height="89.7"/>
			<polygon fill="#A7A9AC" points="2695.4,240.7 2267.1,669 2240.9,642.8 2629.3,254.4 			"/>
			
				<rect x="1348.8" y="1313.4" transform="matrix(0.7071 0.7071 -0.7071 0.7071 1414.6995 -699.8578)" fill="#0080B0" width="406.7" height="88.8"/>
			<path fill="#0098D1" d="M497.7,2746.3l-12.9,12.9l-334.1-334.1l12.9-12.9c39.7-39.7,104.1-39.7,143.9,0l190.3,190.3
				C537.4,2642.2,537.4,2706.6,497.7,2746.3z"/>
			<polygon fill="#007AA8" points="487.1,2591.9 434.1,2644.9 349.5,2560.4 1527,1383 1569.2,1425.2 444.9,2549.6 			"/>
			<path fill="#007AA8" d="M497.7,2746.3l-12.9,12.9l-291.9-291.9l12.9-12.9c39.7-39.7,104.1-39.7,143.9,0l148,148
				C537.4,2642.2,537.4,2706.6,497.7,2746.3z"/>
			<g>
				<line fill="none" stroke="#231F20" stroke-width="14" stroke-miterlimit="10" x1="2165.8" y1="1031.8" x2="2043.1" y2="909.1"/>
				
					<line fill="none" stroke="#231F20" stroke-width="14" stroke-miterlimit="10" x1="2112.7" y1="1084.8" x2="2040.6" y2="1012.7"/>
				<line fill="none" stroke="#231F20" stroke-width="14" stroke-miterlimit="10" x1="2059.7" y1="1137.8" x2="1937" y2="1015.2"/>
				
					<line fill="none" stroke="#231F20" stroke-width="14" stroke-miterlimit="10" x1="2006.7" y1="1190.9" x2="1934.5" y2="1118.7"/>
				<line fill="none" stroke="#231F20" stroke-width="14" stroke-miterlimit="10" x1="1953.6" y1="1243.9" x2="1831" y2="1121.2"/>
				
					<line fill="none" stroke="#231F20" stroke-width="14" stroke-miterlimit="10" x1="1900.6" y1="1296.9" x2="1828.5" y2="1224.8"/>
				<line fill="none" stroke="#231F20" stroke-width="14" stroke-miterlimit="10" x1="1847.6" y1="1350" x2="1724.9" y2="1227.3"/>
				<line fill="none" stroke="#231F20" stroke-width="14" stroke-miterlimit="10" x1="1794.5" y1="1403" x2="1722.4" y2="1330.9"/>
				<line fill="none" stroke="#231F20" stroke-width="14" stroke-miterlimit="10" x1="1741.5" y1="1456" x2="1618.8" y2="1333.4"/>
				<line fill="none" stroke="#231F20" stroke-width="14" stroke-miterlimit="10" x1="1688.4" y1="1509.1" x2="1616.3" y2="1437"/>
				
					<line fill="none" stroke="#231F20" stroke-width="14" stroke-miterlimit="10" x1="1635.4" y1="1562.1" x2="1512.7" y2="1439.4"/>
				<line fill="none" stroke="#231F20" stroke-width="14" stroke-miterlimit="10" x1="1582.4" y1="1615.2" x2="1510.2" y2="1543"/>
				
					<line fill="none" stroke="#231F20" stroke-width="14" stroke-miterlimit="10" x1="1529.3" y1="1668.2" x2="1406.7" y2="1545.5"/>
				
					<line fill="none" stroke="#231F20" stroke-width="14" stroke-miterlimit="10" x1="1476.3" y1="1721.2" x2="1404.2" y2="1649.1"/>
				
					<line fill="none" stroke="#231F20" stroke-width="14" stroke-miterlimit="10" x1="1423.3" y1="1774.3" x2="1300.6" y2="1651.6"/>
				
					<line fill="none" stroke="#231F20" stroke-width="14" stroke-miterlimit="10" x1="1370.2" y1="1827.3" x2="1298.1" y2="1755.2"/>
				
					<line fill="none" stroke="#231F20" stroke-width="14" stroke-miterlimit="10" x1="1317.2" y1="1880.3" x2="1194.5" y2="1757.7"/>
				<line fill="none" stroke="#231F20" stroke-width="14" stroke-miterlimit="10" x1="1264.1" y1="1933.4" x2="1192" y2="1861.2"/>
				
					<line fill="none" stroke="#231F20" stroke-width="14" stroke-miterlimit="10" x1="1211.1" y1="1986.4" x2="1088.4" y2="1863.7"/>
			</g>
			<path fill="#0080B0" d="M1158.3,2255.5l-503.8-503.8l18.9-18.9c29.7-29.7,78-29.7,107.7,0l396.1,396.1c29.7,29.7,29.7,78,0,107.7
				L1158.3,2255.5z"/>
		</g>
		<g>
			<path fill="#4FC4EF" d="M805.6,1003.1l1144.2,1144.2l287.6-287.6L1093.2,715.5c-46.7-46.7-122.4-46.7-169.1,0L805.6,834
				C758.9,880.7,758.9,956.4,805.6,1003.1z"/>
			<path fill="#00AEEF" d="M805.6,1003.1l1144.2,1144.2l245.3-245.3L1050.9,757.8c-46.7-46.7-122.4-46.7-169.1,0L805.6,834
				C758.9,880.7,758.9,956.4,805.6,1003.1z"/>
			<path opacity="0.1" fill="#ED1C24" d="M805.6,1003.1l467.1,467.1l287.6-287.6l-467.1-467.1c-46.7-46.7-122.4-46.7-169.1,0
				L805.6,834C758.9,880.7,758.9,956.4,805.6,1003.1z"/>
			
				<rect x="1229.2" y="1911.9" transform="matrix(-0.7071 -0.7071 0.7071 -0.7071 2125.4465 4823.7188)" fill="#0098D1" width="1665.1" height="119.6"/>
			
				<rect x="721.4" y="655.6" transform="matrix(-0.7071 -0.7071 0.7071 -0.7071 869.1329 1790.7092)" fill="#8BD4EF" width="168" height="119.6"/>
			
				<rect x="710.9" y="681.1" transform="matrix(-0.7071 -0.7071 0.7071 -0.7071 843.6203 1801.277)" fill="#77B6CC" width="168" height="89.7"/>
			<polygon fill="#A7A9AC" points="304.6,240.7 732.9,669 759.1,642.8 370.7,254.4 			"/>
			
				<rect x="1244.5" y="1313.4" transform="matrix(-0.7071 0.7071 -0.7071 -0.7071 3431.7139 1294.0654)" fill="#0080B0" width="406.7" height="88.8"/>
			<path fill="#0098D1" d="M2502.3,2746.3l12.9,12.9l334.1-334.1l-12.9-12.9c-39.7-39.7-104.1-39.7-143.9,0l-190.3,190.3
				C2462.6,2642.2,2462.6,2706.6,2502.3,2746.3z"/>
			<polygon fill="#007AA8" points="2512.9,2591.9 2565.9,2644.9 2650.5,2560.4 1473,1383 1430.8,1425.2 2555.1,2549.6 			"/>
			<path fill="#007AA8" d="M2502.3,2746.3l12.9,12.9l291.9-291.9l-12.9-12.9c-39.7-39.7-104.1-39.7-143.9,0l-148,148
				C2462.6,2642.2,2462.6,2706.6,2502.3,2746.3z"/>
			<g>
				<line fill="none" stroke="#231F20" stroke-width="14" stroke-miterlimit="10" x1="834.2" y1="1031.8" x2="956.9" y2="909.1"/>
				<line fill="none" stroke="#231F20" stroke-width="14" stroke-miterlimit="10" x1="887.3" y1="1084.8" x2="959.4" y2="1012.7"/>
				<line fill="none" stroke="#231F20" stroke-width="14" stroke-miterlimit="10" x1="940.3" y1="1137.8" x2="1063" y2="1015.2"/>
				<line fill="none" stroke="#231F20" stroke-width="14" stroke-miterlimit="10" x1="993.3" y1="1190.9" x2="1065.5" y2="1118.7"/>
				<line fill="none" stroke="#231F20" stroke-width="14" stroke-miterlimit="10" x1="1046.4" y1="1243.9" x2="1169" y2="1121.2"/>
				
					<line fill="none" stroke="#231F20" stroke-width="14" stroke-miterlimit="10" x1="1099.4" y1="1296.9" x2="1171.5" y2="1224.8"/>
				<line fill="none" stroke="#231F20" stroke-width="14" stroke-miterlimit="10" x1="1152.4" y1="1350" x2="1275.1" y2="1227.3"/>
				<line fill="none" stroke="#231F20" stroke-width="14" stroke-miterlimit="10" x1="1205.5" y1="1403" x2="1277.6" y2="1330.9"/>
				<line fill="none" stroke="#231F20" stroke-width="14" stroke-miterlimit="10" x1="1258.5" y1="1456" x2="1381.2" y2="1333.4"/>
				<line fill="none" stroke="#231F20" stroke-width="14" stroke-miterlimit="10" x1="1311.6" y1="1509.1" x2="1383.7" y2="1437"/>
				
					<line fill="none" stroke="#231F20" stroke-width="14" stroke-miterlimit="10" x1="1364.6" y1="1562.1" x2="1487.3" y2="1439.4"/>
				<line fill="none" stroke="#231F20" stroke-width="14" stroke-miterlimit="10" x1="1417.6" y1="1615.2" x2="1489.8" y2="1543"/>
				
					<line fill="none" stroke="#231F20" stroke-width="14" stroke-miterlimit="10" x1="1470.7" y1="1668.2" x2="1593.3" y2="1545.5"/>
				
					<line fill="none" stroke="#231F20" stroke-width="14" stroke-miterlimit="10" x1="1523.7" y1="1721.2" x2="1595.8" y2="1649.1"/>
				
					<line fill="none" stroke="#231F20" stroke-width="14" stroke-miterlimit="10" x1="1576.7" y1="1774.3" x2="1699.4" y2="1651.6"/>
				
					<line fill="none" stroke="#231F20" stroke-width="14" stroke-miterlimit="10" x1="1629.8" y1="1827.3" x2="1701.9" y2="1755.2"/>
				
					<line fill="none" stroke="#231F20" stroke-width="14" stroke-miterlimit="10" x1="1682.8" y1="1880.3" x2="1805.5" y2="1757.7"/>
				<line fill="none" stroke="#231F20" stroke-width="14" stroke-miterlimit="10" x1="1735.9" y1="1933.4" x2="1808" y2="1861.2"/>
				
					<line fill="none" stroke="#231F20" stroke-width="14" stroke-miterlimit="10" x1="1788.9" y1="1986.4" x2="1911.6" y2="1863.7"/>
			</g>
			<path fill="#0080B0" d="M1841.7,2255.5l503.8-503.8l-18.9-18.9c-29.7-29.7-78-29.7-107.7,0l-396.1,396.1
				c-29.7,29.7-29.7,78,0,107.7L1841.7,2255.5z"/>
		</g>
		<g opacity="0.8">
			<g>
				<path fill="#256EBD" d="M346.4,620.7c0,20.7-16.8,37.5-37.5,37.5c-20.7,0-37.5-16.8-37.5-37.5c0-1.4,0.2-2.9,0.5-4.5
					c4.4-22,37-60.5,37-60.5s32.6,38.5,37,60.5C346.3,617.8,346.4,619.3,346.4,620.7z"/>
				<path fill="#2979CF" d="M345.9,616.1c-2.9,17.8-18.4,31.4-37,31.4c-18.6,0-34.1-13.6-37-31.4c4.4-22,37-60.5,37-60.5
					S341.5,594.2,345.9,616.1z"/>
				<ellipse opacity="0.5" fill="#FFFFFF" cx="289" cy="616.8" rx="6.2" ry="8.5"/>
			</g>
			<g>
				<path fill="#256EBD" d="M411.6,801c0,20.7-16.8,37.5-37.5,37.5c-20.7,0-37.5-16.8-37.5-37.5c0-1.4,0.2-2.9,0.5-4.5
					c4.4-22,37-60.5,37-60.5s32.6,38.5,37,60.5C411.5,798,411.6,799.6,411.6,801z"/>
				<path fill="#2979CF" d="M411.1,796.4c-2.9,17.8-18.4,31.4-37,31.4c-18.6,0-34.1-13.6-37-31.4c4.4-22,37-60.5,37-60.5
					S406.7,774.4,411.1,796.4z"/>
				<ellipse opacity="0.5" fill="#FFFFFF" cx="354.2" cy="797.1" rx="6.2" ry="8.5"/>
			</g>
			<g>
				<path fill="#256EBD" d="M295.2,945c0,20.7-16.8,37.5-37.5,37.5c-20.7,0-37.5-16.8-37.5-37.5c0-1.4,0.2-2.9,0.5-4.5
					c4.4-22,37-60.5,37-60.5s32.6,38.5,37,60.5C295,942.1,295.2,943.6,295.2,945z"/>
				<path fill="#2979CF" d="M294.7,940.5c-2.9,17.8-18.4,31.4-37,31.4c-18.6,0-34.1-13.6-37-31.4c4.4-22,37-60.5,37-60.5
					S290.3,918.5,294.7,940.5z"/>
				<ellipse opacity="0.5" fill="#FFFFFF" cx="237.8" cy="941.2" rx="6.2" ry="8.5"/>
			</g>
			<g>
				<path fill="#256EBD" d="M2671.2,620.7c0,20.7,16.8,37.5,37.5,37.5c20.7,0,37.5-16.8,37.5-37.5c0-1.4-0.2-2.9-0.5-4.5
					c-4.4-22-37-60.5-37-60.5s-32.6,38.5-37,60.5C2671.3,617.8,2671.2,619.3,2671.2,620.7z"/>
				<path fill="#2979CF" d="M2671.6,616.1c2.9,17.8,18.4,31.4,37,31.4c18.6,0,34.1-13.6,37-31.4c-4.4-22-37-60.5-37-60.5
					S2676.1,594.2,2671.6,616.1z"/>
				<ellipse opacity="0.5" fill="#FFFFFF" cx="2728.6" cy="616.8" rx="6.2" ry="8.5"/>
			</g>
			<g>
				<path fill="#256EBD" d="M2606,801c0,20.7,16.8,37.5,37.5,37.5c20.7,0,37.5-16.8,37.5-37.5c0-1.4-0.2-2.9-0.5-4.5
					c-4.4-22-37-60.5-37-60.5s-32.6,38.5-37,60.5C2606.1,798,2606,799.6,2606,801z"/>
				<path fill="#2979CF" d="M2606.4,796.4c2.9,17.8,18.4,31.4,37,31.4c18.6,0,34.1-13.6,37-31.4c-4.4-22-37-60.5-37-60.5
					S2610.9,774.4,2606.4,796.4z"/>
				<ellipse opacity="0.5" fill="#FFFFFF" cx="2663.4" cy="797.1" rx="6.2" ry="8.5"/>
			</g>
			<g>
				<path fill="#256EBD" d="M2722.4,945c0,20.7,16.8,37.5,37.5,37.5c20.7,0,37.5-16.8,37.5-37.5c0-1.4-0.2-2.9-0.5-4.5
					c-4.4-22-37-60.5-37-60.5s-32.6,38.5-37,60.5C2722.6,942.1,2722.4,943.6,2722.4,945z"/>
				<path fill="#2979CF" d="M2722.9,940.5c2.9,17.8,18.4,31.4,37,31.4c18.6,0,34.1-13.6,37-31.4c-4.4-22-37-60.5-37-60.5
					S2727.3,918.5,2722.9,940.5z"/>
				<ellipse opacity="0.5" fill="#FFFFFF" cx="2779.8" cy="941.2" rx="6.2" ry="8.5"/>
			</g>
		</g>
	</g>
</g>
</svg>
